<svg width="200" height="200" viewBox="0 0 200 200" fill="none" xmlns="http://www.w3.org/2000/svg">
<g filter="url(#filter0_d_49_29)">
<path d="M59.531 49L61.031 50.5H64.531L66.531 52V54L61.031 63H115.031L117.531 73.5C117.031 70 116.631 63 119.031 63H137.031L132.531 51C133.864 49.8333 138.131 48.1 144.531 50.5C148.931 54.5 153.698 60.5 155.531 63L157.531 67.5L159.031 73.5L162.531 75.5L166.531 88L169.031 89.5L187.531 129C187.198 133 184.231 140.6 175.031 139C173.879 139.691 173.446 139.973 173.349 140.056C173.41 140.037 173.471 140.019 173.531 140C173.39 140.071 173.278 140.117 173.349 140.056C158.747 144.57 124.745 152.992 104.031 151C100.831 143 99.031 147.667 98.531 151C82.531 151.167 46.731 149.5 31.531 141.5C30.331 140.3 29.3644 141.667 29.031 142.5L20.531 139L20.031 136.5L17.031 137.5C15.1977 136.5 11.631 133.5 12.031 129.5C22.831 109.9 25.1977 105.667 25.031 106L26.031 104.5V99L42.031 67.5L44.031 65.5L46.031 61V57.5L52.531 51L59.531 49Z" fill="white"/>
<path d="M59.531 49L61.031 50.5H64.531L66.531 52V54L61.031 63H115.031L117.531 73.5C117.031 70 116.631 63 119.031 63C121.431 63 132.031 63 137.031 63L132.531 51C133.864 49.8333 138.131 48.1 144.531 50.5C148.931 54.5 153.698 60.5 155.531 63L157.531 67.5L159.031 73.5L162.531 75.5L166.531 88L169.031 89.5L187.531 129C187.198 133 184.231 140.6 175.031 139C173.031 140.2 173.198 140.167 173.531 140C159.031 144.5 124.831 153 104.031 151C100.831 143 99.031 147.667 98.531 151C82.531 151.167 46.731 149.5 31.531 141.5C30.331 140.3 29.3644 141.667 29.031 142.5L20.531 139L20.031 136.5L17.031 137.5C15.1977 136.5 11.631 133.5 12.031 129.5C22.831 109.9 25.1977 105.667 25.031 106L26.031 104.5V99L42.031 67.5L44.031 65.5L46.031 61V57.5L52.531 51L59.531 49Z" stroke="white"/>
</g>
<defs>
<filter id="filter0_d_49_29" x="11.5" y="48.4384" width="176.541" height="107.361" filterUnits="userSpaceOnUse" color-interpolation-filters="sRGB">
<feFlood flood-opacity="0" result="BackgroundImageFix"/>
<feColorMatrix in="SourceAlpha" type="matrix" values="0 0 0 0 0 0 0 0 0 0 0 0 0 0 0 0 0 0 127 0" result="hardAlpha"/>
<feOffset dy="4"/>
<feComposite in2="hardAlpha" operator="out"/>
<feColorMatrix type="matrix" values="0 0 0 0 0 0 0 0 0 0 0 0 0 0 0 0 0 0 0.16 0"/>
<feBlend mode="normal" in2="BackgroundImageFix" result="effect1_dropShadow_49_29"/>
<feBlend mode="normal" in="SourceGraphic" in2="effect1_dropShadow_49_29" result="shape"/>
</filter>
</defs>
</svg>
