<svg width="200" height="200" viewBox="0 0 200 200" fill="none" xmlns="http://www.w3.org/2000/svg">
<path d="M54 81.7257C54 88.562 60.1311 94.0948 67.6957 94.0948C68.4093 94.0948 69.111 94.0476 69.7976 93.9503C68.9363 95.882 67.9305 98.2827 67.6957 99.486C66.6869 104.562 72.3241 108.823 78.0306 108.823C78.0306 108.823 80.7921 109.047 81.3853 108.517C83.5203 106.588 81.3853 97.9199 81.3853 97.9199C81.3853 96.4571 82.6982 95.2745 84.3184 95.2745C85.9324 95.2745 87.2394 96.4571 87.2394 97.9199C87.2394 97.9199 85.1103 106.894 87.2394 108.823C88.9799 110.392 95.3339 110.392 97.0714 108.823C99.2065 106.894 97.0714 97.9199 97.0714 97.9199C97.0714 96.4571 98.3874 95.2745 99.9985 95.2745C101.61 95.2745 102.926 96.4571 102.926 97.9199C102.926 97.9199 100.79 106.894 102.926 108.823C104.66 110.392 111.017 110.392 112.752 108.823C114.887 106.894 112.752 97.9199 112.752 97.9199C112.752 96.4571 114.065 95.2745 115.679 95.2745C117.299 95.2745 118.606 96.4571 118.606 97.9199C118.606 97.9199 116.471 106.585 118.606 108.517C119.199 109.05 121.966 108.823 121.966 108.823C127.676 108.823 133.307 104.562 132.304 99.486C132.069 98.2827 131.064 95.882 130.196 93.9503C130.883 94.0476 131.591 94.0948 132.304 94.0948C139.869 94.0948 146 88.562 146 81.7257C146 77.7442 143.922 74.2081 140.685 71.946C144.164 66.049 145.997 59.3593 146 52.5489C145.991 29.6067 125.402 11 99.9955 11C74.5887 11 54 29.6067 54 52.5489C54 59.5592 55.9243 66.1566 59.315 71.946C56.0808 74.211 54 77.7471 54 81.7257ZM125.396 54.56C136.481 55.1587 130.567 70.8548 125.396 74.2788C120.229 77.7029 107.813 71.3326 108.53 67.18C109.593 61.0751 118.567 54.1913 125.396 54.56ZM95.8308 80.8999C97.4599 78.1099 98.282 75.5795 100.285 75.5795C102.287 75.5795 103.106 78.1069 104.741 80.8999C106.148 83.3006 110.153 85.0731 107.738 87.2496C105.103 89.6326 95.4574 89.6326 92.8224 87.2496C90.3561 85.0229 94.4184 83.3035 95.8308 80.8999ZM75.1789 54.56C81.9996 54.1913 90.9855 61.0751 92.0455 67.1771C92.7652 71.3296 80.3464 77.7 75.1789 74.2759C70.0114 70.8577 64.0911 55.1616 75.1789 54.56Z" fill="white"/>
<path d="M176.135 154.2C169.913 150.865 165.781 153.32 165.781 153.32C161.506 155.854 154.43 156.006 150.034 153.651L116.123 135.498L150.031 117.342C154.424 114.997 161.506 115.146 165.778 117.676C165.778 117.676 169.913 120.126 176.132 116.797C182.695 113.28 184.951 105.495 181.157 99.3976L179.9 97.3889C177.828 95.9345 175.865 92.7784 175.539 90.3762L174.285 88.3675C170.494 82.2757 162.096 80.1925 155.524 83.7093C149.302 87.0353 149.533 91.5833 149.533 91.5833C149.759 96.2832 146.362 102.047 141.971 104.393L99.9998 126.864L58.0222 104.393C53.635 102.047 50.232 96.2832 50.4632 91.5833C50.4632 91.5833 50.6915 87.0383 44.4724 83.7093C37.9005 80.1925 29.4997 82.2787 25.7083 88.3675L24.4574 90.3762C24.1313 92.7784 22.1719 95.9315 20.0909 97.3889L18.843 99.3976C15.0487 105.495 17.3015 113.28 23.8704 116.797C30.0866 120.129 34.2218 117.676 34.2218 117.676C38.4904 115.143 45.5751 114.997 49.9623 117.342L83.8769 135.498L49.9623 153.654C45.5751 156.009 38.4904 155.854 34.2218 153.323C34.2218 153.323 30.0866 150.868 23.8704 154.203C17.3045 157.716 15.0487 165.51 18.843 171.599L20.0909 173.607C22.1689 175.065 24.1313 178.221 24.4574 180.623L25.7083 182.632C29.4967 188.721 37.9005 190.81 44.4724 187.29C50.6945 183.961 50.4632 179.413 50.4632 179.413C50.232 174.722 53.635 168.952 58.0222 166.607L99.9998 144.132L141.974 166.604C146.362 168.949 149.762 174.719 149.536 179.41C149.536 179.41 149.308 183.955 155.527 187.287C162.099 190.807 170.497 188.715 174.288 182.629L175.542 180.62C175.865 178.218 177.828 175.065 179.903 173.604L181.16 171.596C184.951 165.507 182.695 157.713 176.135 154.2Z" fill="white"/>
</svg>
