<svg width="200" height="200" viewBox="0 0 200 200" fill="none" xmlns="http://www.w3.org/2000/svg">
<path d="M164.561 21.5487L69.1318 118.557C68.8042 118.89 68.2899 118.952 67.8927 118.706L54.5122 110.426C54.1408 110.197 53.6632 110.234 53.3325 110.52L42.8383 119.58C42.3904 119.967 42.3744 120.656 42.8038 121.063L55.607 133.2C55.9266 133.503 56.0121 133.972 55.7659 134.337C53.6822 137.428 44.7592 147.36 23.4385 167.506C23.2223 167.71 22.9201 167.808 22.623 167.793C13.1326 167.299 3.25561 186.642 5.26197 188.898C8.05919 192.043 9.573 190.53 16.0678 184.037C17.7211 182.384 23.0376 184.582 23.1074 186.998C23.1127 187.181 23.026 187.358 22.9101 187.499C16.094 195.844 17.6046 197 23.0917 197C24.2364 197 41.0585 188.726 38.9771 181.402C38.8703 181.026 38.9274 180.61 39.1884 180.319L70.1717 145.774C70.4962 145.412 71.0337 145.336 71.4458 145.593L89.9041 157.119C90.3211 157.379 90.8656 157.298 91.1882 156.927L100.768 145.914C101.134 145.493 101.085 144.854 100.658 144.494L86.132 132.234C85.692 131.863 85.6556 131.197 86.0525 130.78L180.216 31.8275C180.283 31.7578 180.339 31.6789 180.382 31.5933L193.392 6.14504C193.851 5.24729 192.844 4.31153 191.982 4.83545L164.754 21.3956C164.684 21.4384 164.619 21.4898 164.561 21.5487Z" fill="white" stroke="white"/>
</svg>
