<svg width="200" height="200" viewBox="0 0 200 200" fill="none" xmlns="http://www.w3.org/2000/svg">
<path d="M66.0655 22.2513L42.7166 41.0219C41.9244 41.6588 41.3451 42.522 41.056 43.4966L28.2065 86.8039C28.0696 87.2655 28 87.7446 28 88.2261V109.766C28 110.253 27.929 110.737 27.7891 111.203L23.8338 124.387C23.6142 125.119 23.5653 125.892 23.691 126.646L25.9024 139.914C25.9672 140.303 25.9858 140.699 25.9577 141.092L25 154.5L23.0461 166.712C23.0154 166.904 23 167.097 23 167.292C23 168.901 24.05 170.323 25.5887 170.797L28.4304 171.671C29.1347 171.888 29.8783 171.946 30.6079 171.842L39.6856 170.545C41.9335 170.224 43.6828 168.428 43.945 166.173L51 105.5V174.621C51 175.832 51.4396 177.002 52.2371 177.914L53.734 179.625C54.2379 180.2 54.8674 180.653 55.5738 180.947L65.5769 185.115C66.1863 185.369 66.8399 185.5 67.5 185.5H104.5L129.134 182.119C129.707 182.04 130.262 181.863 130.774 181.594L137.82 177.904C139.468 177.041 140.5 175.335 140.5 173.475V137.543C140.5 137.189 140.605 136.843 140.801 136.548C141.562 135.407 143.269 135.507 143.892 136.728L153.031 154.64C154.161 156.856 156.747 157.903 159.1 157.1L172.82 152.415C174.483 151.847 175.725 150.449 176.093 148.731L176.72 145.809C176.903 144.951 176.858 144.061 176.589 143.226L162.134 98.414C162.045 98.1385 161.932 97.8713 161.797 97.6153L152.782 80.5346C152.595 80.1795 152.451 79.8031 152.353 79.4135L148 62L145.787 50.0489C145.6 49.0407 145.108 48.1143 144.377 47.3952L114.5 18L110.87 15.0957C109.983 14.3864 108.881 14 107.746 14H103.014C102.027 14 101.062 14.2922 100.24 14.8397L99.7596 15.1603C98.9383 15.7078 97.9732 16 96.9861 16H82.75C81.9631 16 81.2221 15.6295 80.75 15C80.2779 14.3705 79.5369 14 78.75 14H77.434C76.4969 14 75.5786 14.2633 74.784 14.76L69.2665 18.2084C68.4436 18.7228 67.8057 19.4857 67.4453 20.3867C67.1534 21.1165 66.6781 21.7588 66.0655 22.2513Z" fill="white" stroke="white"/>
</svg>
