<svg width="200" height="200" viewBox="0 0 200 200" fill="none" xmlns="http://www.w3.org/2000/svg">
<g filter="url(#filter0_d_49_26)">
<path d="M38 96.5L27.5 104V108L31.5 114.5L26.5 119L26 120.5L31.5 127.5L36.5 124.5L40 128.5V131.5L41 132.5L41.5 134H42.5V138L49 145.5L63.5 136.5H68.5L69.5 138L71.5 149.5L76 163.5L79 174L82.5 180L85.5 181.5L88 186L90.5 188L94 186L97.5 189L126 174V168L111 124L114.5 121L120.5 128.5L123.5 129.5H125.5L129 126V124.5L126 120.5L125 119L122 109L119.5 98L121.5 94L119 89.5L120 88.5L123.5 91.5L130.5 86.5V83L154.5 66H158.5L164.5 62V58.5L167.5 56.5V52L164.5 48L170 45L172.5 34.5L174.5 32.5L167.5 18.5L163 13.5H157L154.5 12L148.5 16.5V20L95 57.5V61L71.5 77L69.5 74.5L49 88.5L45.5 86.5L38 92.5V96.5Z" fill="white"/>
<path d="M38 96.5L27.5 104V108L31.5 114.5L26.5 119L26 120.5L31.5 127.5L36.5 124.5L40 128.5V131.5L41 132.5L41.5 134H42.5V138L49 145.5L63.5 136.5H68.5L69.5 138L71.5 149.5L76 163.5L79 174L82.5 180L85.5 181.5L88 186L90.5 188L94 186L97.5 189L126 174V168L111 124L114.5 121L120.5 128.5L123.5 129.5H125.5L129 126V124.5L126 120.5L125 119L122 109L119.5 98L121.5 94L119 89.5L120 88.5L123.5 91.5L130.5 86.5V83L154.5 66H158.5L164.5 62V58.5L167.5 56.5V52L164.5 48L170 45L172.5 34.5L174.5 32.5L167.5 18.5L163 13.5H157L154.5 12L148.5 16.5V20L95 57.5V61L71.5 77L69.5 74.5L49 88.5L45.5 86.5L38 92.5V96.5Z" stroke="white"/>
</g>
<defs>
<filter id="filter0_d_49_26" x="25.4404" y="11.3983" width="149.668" height="182.202" filterUnits="userSpaceOnUse" color-interpolation-filters="sRGB">
<feFlood flood-opacity="0" result="BackgroundImageFix"/>
<feColorMatrix in="SourceAlpha" type="matrix" values="0 0 0 0 0 0 0 0 0 0 0 0 0 0 0 0 0 0 127 0" result="hardAlpha"/>
<feOffset dy="4"/>
<feComposite in2="hardAlpha" operator="out"/>
<feColorMatrix type="matrix" values="0 0 0 0 0 0 0 0 0 0 0 0 0 0 0 0 0 0 0.16 0"/>
<feBlend mode="normal" in2="BackgroundImageFix" result="effect1_dropShadow_49_26"/>
<feBlend mode="normal" in="SourceGraphic" in2="effect1_dropShadow_49_26" result="shape"/>
</filter>
</defs>
</svg>
