<svg width="200" height="200" viewBox="0 0 200 200" fill="none" xmlns="http://www.w3.org/2000/svg">
<path d="M21.5693 24.8828C29.8251 43.4583 51.4027 86.2382 80.6731 117.76C109.944 149.282 155.913 179.678 174.113 189.811" stroke="white" stroke-width="3" stroke-linecap="round"/>
<path d="M77.7913 58.1008L76.855 59.0371C75.9272 59.9649 75.71 61.3881 76.3188 62.5505L80.973 71.4357C81.3048 72.0692 81.8522 72.5634 82.5163 72.8291L83.7129 73.3077C84.1011 73.463 84.4526 73.6978 84.7448 73.9969L107.06 96.8438C107.625 97.4218 108.399 97.7476 109.207 97.7476H113.462C114.847 97.7476 116.053 98.6967 116.378 100.044L119.556 113.211C119.692 113.773 119.987 114.283 120.406 114.682L131.022 124.766L139.495 134.299C139.844 134.692 140.29 134.986 140.789 135.152L145.604 136.757C146.359 137.009 147.183 136.95 147.894 136.594L149.304 135.889C150.482 135.3 151.138 134.012 150.922 132.713L150.308 129.032C150.212 128.453 149.947 127.914 149.547 127.484L136.121 113.025C135.732 112.606 135.471 112.084 135.368 111.52L134.555 107.049C134.453 106.488 134.194 105.969 133.808 105.55L128.009 99.2686C127.768 99.0072 127.575 98.705 127.44 98.3761L123.884 89.74C123.765 89.4513 123.601 89.1828 123.4 88.9445L117.791 82.3161C117.606 82.0976 117.391 81.9066 117.152 81.7491L93.8381 66.3831C93.1412 65.9238 92.6671 65.1948 92.5299 64.3714L92.4502 63.8934C92.2831 62.8906 91.6195 62.0407 90.6872 61.6354L81.1088 57.4709C79.9786 56.9795 78.6628 57.2293 77.7913 58.1008Z" fill="white" stroke="white"/>
<path d="M80.9245 59.4709C60.0975 52.7162 15.4038 31.3262 10 4.30737" stroke="white" stroke-width="5" stroke-linecap="round"/>
<path d="M148.472 134.336C153.162 155.35 168.736 196.592 189 195.691" stroke="white" stroke-width="5" stroke-linecap="round"/>
</svg>
