<svg width="178" height="108" viewBox="0 0 178 108" fill="none" xmlns="http://www.w3.org/2000/svg">
<g filter="url(#filter0_d_46_25)">
<path d="M48.531 1L50.031 2.5H53.531L55.531 4V6L50.031 15H104.031L106.531 25.5C106.031 22 105.631 15 108.031 15H126.031L121.531 3C122.864 1.83333 127.131 0.0999999 133.531 2.5C137.931 6.5 142.698 12.5 144.531 15L146.531 19.5L148.031 25.5L151.531 27.5L155.531 40L158.031 41.5L176.531 81C176.198 85 173.231 92.6 164.031 91C162.879 91.6913 162.446 91.9733 162.349 92.0563C162.41 92.0375 162.471 92.0187 162.531 92C162.39 92.0706 162.278 92.1173 162.349 92.0563C147.747 96.5704 113.745 104.992 93.031 103C89.831 95 88.031 99.6667 87.531 103C71.531 103.167 35.731 101.5 20.531 93.5C19.331 92.3 18.3644 93.6667 18.031 94.5L9.53103 91L9.03103 88.5L6.03103 89.5C4.19769 88.5 0.631026 85.5 1.03103 81.5C11.831 61.9 14.1977 57.6667 14.031 58L15.031 56.5V51L31.031 19.5L33.031 17.5L35.031 13V9.5L41.531 3L48.531 1Z" fill="white"/>
<path d="M48.531 1L50.031 2.5H53.531L55.531 4V6L50.031 15H104.031L106.531 25.5C106.031 22 105.631 15 108.031 15C110.431 15 121.031 15 126.031 15L121.531 3C122.864 1.83333 127.131 0.0999999 133.531 2.5C137.931 6.5 142.698 12.5 144.531 15L146.531 19.5L148.031 25.5L151.531 27.5L155.531 40L158.031 41.5L176.531 81C176.198 85 173.231 92.6 164.031 91C162.031 92.2 162.198 92.1667 162.531 92C148.031 96.5 113.831 105 93.031 103C89.831 95 88.031 99.6667 87.531 103C71.531 103.167 35.731 101.5 20.531 93.5C19.331 92.3 18.3644 93.6667 18.031 94.5L9.53103 91L9.03103 88.5L6.03103 89.5C4.19769 88.5 0.631026 85.5 1.03103 81.5C11.831 61.9 14.1977 57.6667 14.031 58L15.031 56.5V51L31.031 19.5L33.031 17.5L35.031 13V9.5L41.531 3L48.531 1Z" stroke="white"/>
</g>
<defs>
<filter id="filter0_d_46_25" x="0.5" y="0.438416" width="176.54" height="107.361" filterUnits="userSpaceOnUse" color-interpolation-filters="sRGB">
<feFlood flood-opacity="0" result="BackgroundImageFix"/>
<feColorMatrix in="SourceAlpha" type="matrix" values="0 0 0 0 0 0 0 0 0 0 0 0 0 0 0 0 0 0 127 0" result="hardAlpha"/>
<feOffset dy="4"/>
<feComposite in2="hardAlpha" operator="out"/>
<feColorMatrix type="matrix" values="0 0 0 0 0 0 0 0 0 0 0 0 0 0 0 0 0 0 0.16 0"/>
<feBlend mode="normal" in2="BackgroundImageFix" result="effect1_dropShadow_46_25"/>
<feBlend mode="normal" in="SourceGraphic" in2="effect1_dropShadow_46_25" result="shape"/>
</filter>
</defs>
</svg>
