<svg width="200" height="200" viewBox="0 0 200 200" fill="none" xmlns="http://www.w3.org/2000/svg">
<path d="M108.554 70.6456L97.5266 72.3421C96.8614 72.4444 96.25 72.7674 95.7906 73.2592L26.3892 147.548C25.8218 148.155 25.0287 148.495 24.1977 148.487C20.7954 148.455 16.4175 148.664 16 154.5L16 154.515C16.0007 156.505 16.0011 157.504 16.2676 159.128C16.9551 163.097 18.8733 168.071 22.9998 172.5C33.2206 183.47 36.4995 185 38.4998 185.5C40.5 186 51.5 186 52 184C52.3784 182.486 53.3297 179.54 53.7698 178.197C53.9203 177.738 54.1813 177.325 54.5289 176.989L126.834 107.143C127.268 106.724 127.565 106.184 127.687 105.593L130.294 92.996C130.427 92.3501 130.77 91.7662 131.269 91.3347L148.817 76.1581C148.939 76.0529 149.052 75.9381 149.155 75.8148L166.739 54.8118C166.912 54.6049 167.057 54.3756 167.168 54.13L183.762 17.7166C184.16 16.8434 183.219 15.9655 182.375 16.4228L143.863 37.3032C143.622 37.4338 143.4 37.5968 143.203 37.7877L110.187 69.8333C109.74 70.267 109.169 70.5509 108.554 70.6456Z" fill="white" stroke="white"/>
</svg>
