<svg width="200" height="200" viewBox="0 0 200 200" fill="none" xmlns="http://www.w3.org/2000/svg">
<path d="M6 149.796L33.9016 146.218L46.9619 140.255L54.6794 142.64H61.8032L92.9698 162.32L102.765 163.513L108.553 172.16L124.137 182L131.854 175.44L141.352 172.607L158.568 163.215L161.537 149.2L175.784 153.822L193 144.429L186.321 130.116L179.643 125.345V115.804L166.286 87.1782L152.929 58.5527L146.25 44.24L139.571 38.8727V29.9273L120.278 36.1891L111.076 42.4509H100.984L79.3159 30.2255L68.4818 24.1127L61.2095 23.9636L57.6476 18L37.1667 26.3491L27.3714 31.7164L16.6857 34.6982L15.35 49.0855L14.0143 63.4727L16.6857 78.2327L11.3429 92.2473L8.67143 121.022L11.3429 128.327L7.33571 135.409L6 149.796Z" fill="white" stroke="white" stroke-width="5"/>
</svg>
