<svg width="200" height="200" viewBox="0 0 200 200" fill="none" xmlns="http://www.w3.org/2000/svg">
<g filter="url(#filter0_d_49_27)">
<path d="M122 40.6385C96 23.8385 55.1667 21.3052 38 22.1385C36.8333 22.4719 36.6 24.8385 45 31.6385C78.6 30.4385 103 48.1385 111 57.1385L106.5 61.6385L108 64.1385L80 100.639L77.5 101.139L57 121.639V123.639L20 158.639C19.3333 158.805 18 160.439 18 165.639C18.5 172.639 32 177.639 35 177.139C37.4 176.739 40.6667 173.305 42 171.639L74.5 135.139L76.5 134.139L92.5 115.139L93.5 112.139L125.5 81.1385H128.5L137 74.1385C154.6 83.7385 169 116.139 174 131.139L181.5 138.639C188.7 119.839 163.833 79.8052 150.5 62.1385C150.167 61.8052 149.2 60.4385 148 57.6385C149.6 54.4385 149 49.9719 148.5 48.1385L136 37.6385C134.667 37.1385 130 37.0385 122 40.6385Z" fill="white"/>
<path d="M122 40.6385C96 23.8385 55.1667 21.3052 38 22.1385C36.8333 22.4719 36.6 24.8385 45 31.6385C78.6 30.4385 103 48.1385 111 57.1385L106.5 61.6385L108 64.1385L80 100.639L77.5 101.139L57 121.639V123.639L20 158.639C19.3333 158.805 18 160.439 18 165.639C18.5 172.639 32 177.639 35 177.139C37.4 176.739 40.6667 173.305 42 171.639L74.5 135.139L76.5 134.139L92.5 115.139L93.5 112.139L125.5 81.1385H128.5L137 74.1385C154.6 83.7385 169 116.139 174 131.139L181.5 138.639C188.7 119.839 163.833 79.8052 150.5 62.1385C150.167 61.8052 149.2 60.4385 148 57.6385C149.6 54.4385 149 49.9719 148.5 48.1385L136 37.6385C134.667 37.1385 130 37.0385 122 40.6385Z" stroke="white"/>
</g>
<defs>
<filter id="filter0_d_49_27" x="17.5" y="21.5" width="165.783" height="160.173" filterUnits="userSpaceOnUse" color-interpolation-filters="sRGB">
<feFlood flood-opacity="0" result="BackgroundImageFix"/>
<feColorMatrix in="SourceAlpha" type="matrix" values="0 0 0 0 0 0 0 0 0 0 0 0 0 0 0 0 0 0 127 0" result="hardAlpha"/>
<feOffset dy="4"/>
<feComposite in2="hardAlpha" operator="out"/>
<feColorMatrix type="matrix" values="0 0 0 0 0 0 0 0 0 0 0 0 0 0 0 0 0 0 0.16 0"/>
<feBlend mode="normal" in2="BackgroundImageFix" result="effect1_dropShadow_49_27"/>
<feBlend mode="normal" in="SourceGraphic" in2="effect1_dropShadow_49_27" result="shape"/>
</filter>
</defs>
</svg>
