<svg width="167" height="161" viewBox="0 0 167 161" fill="none" xmlns="http://www.w3.org/2000/svg">
<g filter="url(#filter0_d_33_46)">
<path d="M105 19.6385C79 2.83854 38.1667 0.305202 21 1.13854C19.8333 1.47187 19.6 3.83853 28 10.6385C61.6 9.43853 86 27.1385 94 36.1385L89.5 40.6385L91 43.1385L63 79.6385L60.5 80.1385L40 100.639V102.639L3 137.639C2.33333 137.805 1 139.439 1 144.639C1.5 151.639 15 156.639 18 156.139C20.4 155.739 23.6667 152.305 25 150.639L57.5 114.139L59.5 113.139L75.5 94.1385L76.5 91.1385L108.5 60.1385H111.5L120 53.1385C137.6 62.7385 152 95.1385 157 110.139L164.5 117.639C171.7 98.8385 146.833 58.8052 133.5 41.1385C133.167 40.8052 132.2 39.4385 131 36.6385C132.6 33.4385 132 28.9719 131.5 27.1385L119 16.6385C117.667 16.1385 113 16.0385 105 19.6385Z" fill="white"/>
<path d="M105 19.6385C79 2.83854 38.1667 0.305202 21 1.13854C19.8333 1.47187 19.6 3.83853 28 10.6385C61.6 9.43853 86 27.1385 94 36.1385L89.5 40.6385L91 43.1385L63 79.6385L60.5 80.1385L40 100.639V102.639L3 137.639C2.33333 137.805 1 139.439 1 144.639C1.5 151.639 15 156.639 18 156.139C20.4 155.739 23.6667 152.305 25 150.639L57.5 114.139L59.5 113.139L75.5 94.1385L76.5 91.1385L108.5 60.1385H111.5L120 53.1385C137.6 62.7385 152 95.1385 157 110.139L164.5 117.639C171.7 98.8385 146.833 58.8052 133.5 41.1385C133.167 40.8052 132.2 39.4385 131 36.6385C132.6 33.4385 132 28.9719 131.5 27.1385L119 16.6385C117.667 16.1385 113 16.0385 105 19.6385Z" stroke="white"/>
</g>
<defs>
<filter id="filter0_d_33_46" x="0.5" y="0.500008" width="165.782" height="160.173" filterUnits="userSpaceOnUse" color-interpolation-filters="sRGB">
<feFlood flood-opacity="0" result="BackgroundImageFix"/>
<feColorMatrix in="SourceAlpha" type="matrix" values="0 0 0 0 0 0 0 0 0 0 0 0 0 0 0 0 0 0 127 0" result="hardAlpha"/>
<feOffset dy="4"/>
<feComposite in2="hardAlpha" operator="out"/>
<feColorMatrix type="matrix" values="0 0 0 0 0 0 0 0 0 0 0 0 0 0 0 0 0 0 0.16 0"/>
<feBlend mode="normal" in2="BackgroundImageFix" result="effect1_dropShadow_33_46"/>
<feBlend mode="normal" in="SourceGraphic" in2="effect1_dropShadow_33_46" result="shape"/>
</filter>
</defs>
</svg>
