<svg width="151" height="183" viewBox="0 0 151 183" fill="none" xmlns="http://www.w3.org/2000/svg">
<g filter="url(#filter0_d_27_36)">
<path d="M13 85.5L2.5 93V97L6.5 103.5L1.5 108L1 109.5L6.5 116.5L11.5 113.5L15 117.5V120.5L16 121.5L16.5 123H17.5V127L24 134.5L38.5 125.5H43.5L44.5 127L46.5 138.5L51 152.5L54 163L57.5 169L60.5 170.5L63 175L65.5 177L69 175L72.5 178L101 163V157L86 113L89.5 110L95.5 117.5L98.5 118.5H100.5L104 115V113.5L101 109.5L100 108L97 98L94.5 87L96.5 83L94 78.5L95 77.5L98.5 80.5L105.5 75.5V72L129.5 55H133.5L139.5 51V47.5L142.5 45.5V41L139.5 37L145 34L147.5 23.5L149.5 21.5L142.5 7.5L138 2.5H132L129.5 1L123.5 5.5V9L70 46.5V50L46.5 66L44.5 63.5L24 77.5L20.5 75.5L13 81.5V85.5Z" fill="white"/>
<path d="M13 85.5L2.5 93V97L6.5 103.5L1.5 108L1 109.5L6.5 116.5L11.5 113.5L15 117.5V120.5L16 121.5L16.5 123H17.5V127L24 134.5L38.5 125.5H43.5L44.5 127L46.5 138.5L51 152.5L54 163L57.5 169L60.5 170.5L63 175L65.5 177L69 175L72.5 178L101 163V157L86 113L89.5 110L95.5 117.5L98.5 118.5H100.5L104 115V113.5L101 109.5L100 108L97 98L94.5 87L96.5 83L94 78.5L95 77.5L98.5 80.5L105.5 75.5V72L129.5 55H133.5L139.5 51V47.5L142.5 45.5V41L139.5 37L145 34L147.5 23.5L149.5 21.5L142.5 7.5L138 2.5H132L129.5 1L123.5 5.5V9L70 46.5V50L46.5 66L44.5 63.5L24 77.5L20.5 75.5L13 81.5V85.5Z" stroke="white"/>
</g>
<defs>
<filter id="filter0_d_27_36" x="0.44043" y="0.398285" width="149.668" height="182.202" filterUnits="userSpaceOnUse" color-interpolation-filters="sRGB">
<feFlood flood-opacity="0" result="BackgroundImageFix"/>
<feColorMatrix in="SourceAlpha" type="matrix" values="0 0 0 0 0 0 0 0 0 0 0 0 0 0 0 0 0 0 127 0" result="hardAlpha"/>
<feOffset dy="4"/>
<feComposite in2="hardAlpha" operator="out"/>
<feColorMatrix type="matrix" values="0 0 0 0 0 0 0 0 0 0 0 0 0 0 0 0 0 0 0.16 0"/>
<feBlend mode="normal" in2="BackgroundImageFix" result="effect1_dropShadow_27_36"/>
<feBlend mode="normal" in="SourceGraphic" in2="effect1_dropShadow_27_36" result="shape"/>
</filter>
</defs>
</svg>
