<svg width="200" height="200" viewBox="0 0 200 200" fill="none" xmlns="http://www.w3.org/2000/svg">
<path d="M36.2829 140.592C21.8056 148.096 10.6727 160.279 6.44654 166.033C6.15386 166.431 6.02589 166.925 6.11543 167.411C8.21963 178.838 26.5061 189.25 36.5398 193.541C37.2158 193.83 37.9866 193.713 38.5524 193.244C50.3782 183.427 72.4514 163.695 72.9256 157.537C73.3803 151.632 76.3492 144.206 78.0604 140.612C78.2758 140.16 78.3165 139.649 78.2201 139.157C77.3485 134.716 79.0722 127.002 92.3948 126.543C106.107 126.071 109.063 106.444 108.849 95.8524C108.837 95.2727 109.065 94.7142 109.488 94.3174L128.01 76.938C128.556 76.4252 128.77 75.65 128.564 74.9295L128.06 73.1677C127.833 72.373 128.118 71.5203 128.777 71.022L173.464 37.2589C174.376 36.5702 174.526 35.2591 173.795 34.3819L173.5 34.0283C172.746 33.1255 172.931 31.7708 173.898 31.1021L179.144 27.4742C179.684 27.1007 180.006 26.4859 180.006 25.8292V23.7906C180.006 22.8891 180.854 22.2276 181.728 22.446C182.173 22.5572 182.645 22.4407 182.987 22.1347L192.357 13.7608C193.238 12.9739 193.248 11.5996 192.38 10.7991L187.379 6.18789C186.642 5.508 185.515 5.47944 184.744 6.1211L182.996 7.57575C182.637 7.87482 182.184 8.03859 181.717 8.03859H177.748C176.643 8.03859 175.748 8.93401 175.748 10.0386V13.7228C175.748 14.3527 175.451 14.9458 174.947 15.3234L173.847 16.1473C173.501 16.4065 173.08 16.5466 172.648 16.5466H169.115C168.681 16.5466 168.259 16.6878 167.912 16.9489L106.635 63.0897L90.1497 75.5028C89.6479 75.8807 89.3528 76.4723 89.3528 77.1005V78.0995C89.3528 78.7525 89.034 79.3644 88.4988 79.7386L78.0384 87.0524C77.5033 87.4266 77.1845 88.0385 77.1845 88.6915V96.9687C77.1845 97.2355 77.1311 97.4997 77.0274 97.7456L67.8185 119.592C67.5852 120.145 67.1159 120.567 66.5369 120.727C57.7647 123.149 67.0389 118.167 36.5508 140.426C36.4676 140.487 36.3745 140.545 36.2829 140.592Z" fill="white" stroke="white" stroke-width="3"/>
</svg>
