<svg width="200" height="200" viewBox="0 0 200 200" fill="none" xmlns="http://www.w3.org/2000/svg">
<path d="M171.896 36.4053C173.287 34.1825 172.613 31.2525 170.389 29.861L133.117 6.53691C130.894 5.14543 127.964 5.82049 126.573 8.04329C125.248 10.1598 125.814 12.9025 127.789 14.3622L91.3737 72.5543C91.0689 73.0413 90.8544 73.5793 90.7424 74.1433L85.5787 100.003C85.1924 101.938 86.0436 103.911 87.7165 104.958L90.6936 106.821L54.1686 165.188C52.7607 165.233 51.3838 165.834 50.4097 166.97L44.938 173.349C42.8827 175.745 43.4414 179.409 46.1174 181.084L51.4446 184.417C54.1206 186.092 57.6598 184.993 58.9164 182.096L62.2611 174.386C62.8573 173.013 62.7964 171.512 62.2201 170.227L98.7451 111.859L101.722 113.722C103.394 114.769 105.54 114.673 107.111 113.48L128.081 97.5775C128.54 97.2293 128.931 96.8009 129.237 96.313L165.681 38.0743C167.857 39.212 170.571 38.5219 171.896 36.4053ZM135.191 68.8941L113.401 55.258L135.82 19.4316L157.61 33.0672L135.191 68.8941ZM103.983 103.934L95.5351 98.6472L99.8862 76.8561L110.379 60.0889L132.169 73.7246L121.648 90.5368L103.983 103.934Z" fill="white"/>
</svg>
